<?xml version="1.0" encoding="UTF-8"?>
<svg width="400px" height="200px" viewBox="0 0 400 200" version="1.1" xmlns="http://www.w3.org/2000/svg" xmlns:xlink="http://www.w3.org/1999/xlink">
    <!-- Generator: Sketch 56.2 (81672) - https://sketch.com -->
    <title>404 (4)</title>
    <desc>Created with Sketch.</desc>
    <g id="style" stroke="none" stroke-width="1" fill="none" fill-rule="evenodd">
        <g id="Artboard" transform="translate(-760.000000, -332.000000)" fill-rule="nonzero">
            <g id="404-(4)" transform="translate(760.000000, 332.000000)">
                <polygon id="路径" fill="#F9FAFC" points="120.881553 170.721071 120.881553 196.685874 104.537937 196.18751 120.881553 170.222707"></polygon>
                <polyline id="路径" fill="#F2F5FA" points="120.881553 170.721071 120.881553 196.685874 137.743518 196.685874 120.881553 170.721071"></polyline>
                <polygon id="路径" fill="#F9FAFC" points="87.1139068 154.524217 87.1139068 197.508176 59.7350721 196.679645 87.1139068 153.695686"></polygon>
                <polyline id="路径" fill="#F2F5FA" points="87.1139068 154.524217 87.1139068 197.508176 115.32335 197.508176 87.1139068 154.524217"></polyline>
                <polygon id="路径" fill="#F9FAFC" points="239.770896 154.524217 239.770896 197.508176 212.392061 196.679645 239.770896 153.695686"></polygon>
                <polyline id="路径" fill="#F2F5FA" points="239.770896 154.524217 239.770896 197.508176 267.980339 197.508176 239.770896 154.524217"></polyline>
                <polygon id="路径" fill="#F9FAFC" points="275.730597 141.554275 275.730597 198.349167 239.770896 197.258994 275.730597 140.464102"></polygon>
                <polyline id="路径" fill="#F2F5FA" points="275.730597 141.554275 275.730597 198.349167 312.783204 198.349167 275.730597 141.554275"></polyline>
                <polygon id="路径" fill="#F9FAFC" points="177.287948 127.737113 177.287948 197.508176 132.74738 196.168821 177.287948 126.397757"></polygon>
                <polyline id="路径" fill="#F2F5FA" points="177.287948 127.737113 177.287948 197.508176 223.177473 197.508176 177.287948 127.737113"></polyline>
                <path d="M139.798179,53.6053574 L95.1264628,53.6053574 C96.7567445,54.7439288 97.4582339,56.8057864 96.8594182,58.6989586 C96.2606025,60.5921308 94.4998784,61.8790726 92.5097357,61.8782125 L22.8136139,61.8782125 C20.2961301,61.8776917 18.255583,59.841824 18.255583,57.3306339 C18.255583,54.8194438 20.2961301,52.7835761 22.8136139,52.7830557 L79.3136868,52.7830557 C80.8657878,52.7830557 82.1240143,51.5279747 82.1240143,49.9797539 L82.1240143,48.1669521 C82.1240142,46.6187314 80.8657877,45.3636506 79.3136868,45.3636506 L4.56522086,45.3636506 C2.04736808,45.3636506 0.00624510495,43.3276304 0.00624510495,40.8160723 C0.00624510495,38.3045141 2.04736808,36.2684939 4.56522086,36.2684939 L67.4853307,36.2684939 C65.8598162,35.1274805 65.1627384,33.0674744 65.7625115,31.1772144 C66.3622846,29.2869545 68.1206554,28.0018689 70.108303,28.0018689 L109.103158,28.0018689 C111.620642,28.0023894 113.661189,30.0382571 113.661189,32.5494472 C113.661189,35.0606373 111.620642,37.096505 109.103158,37.0970254 L95.1264628,37.0970254 L95.1951598,37.1530914 C93.876555,37.4091799 92.9240243,38.5603224 92.9219171,39.9003271 L92.9219171,41.7380471 C92.9240244,43.0780518 93.876555,44.2291941 95.1951598,44.4852826 L95.1264628,44.5413486 L139.798179,44.5413486 C141.509133,44.3831148 143.163943,45.1979166 144.078551,46.6489346 C144.993158,48.0999526 145.012182,49.940676 144.127759,51.4101944 C143.243336,52.8797127 141.605718,53.7283721 139.891857,53.6053574 L139.798179,53.6053574 Z" id="路径" fill="#E6EAED"></path>
                <path d="M394.501282,91.6741941 L319.752816,91.6741941 C318.200715,91.6741942 316.942489,92.929275 316.942489,94.4774957 L316.942489,96.3152156 C316.942489,97.8634364 318.200715,99.1185173 319.752816,99.1185174 L376.265379,99.1185174 C378.782863,99.1190378 380.82341,101.154905 380.82341,103.666096 C380.82341,106.177286 378.782863,108.213153 376.265379,108.213674 L306.556767,108.213674 C304.570271,108.210668 302.814401,106.924939 302.216272,105.035363 C301.618143,103.145786 302.315463,101.087399 303.94004,99.9470488 L259.268323,99.9470488 C256.750471,99.9470488 254.709348,97.9110287 254.709348,95.3994705 C254.709348,92.8879124 256.750471,90.8518922 259.268323,90.8518922 L303.958776,90.8518922 L303.890079,90.7958262 C305.208683,90.5397377 306.161214,89.3885953 306.163321,88.0485906 L306.163321,86.2108705 C306.161214,84.8708658 305.208683,83.7197235 303.890079,83.463635 L303.958776,83.4075689 L289.963345,83.4075689 C287.445492,83.4075689 285.404369,81.3715488 285.404369,78.8599906 C285.404369,76.3484325 287.445492,74.3124048 289.963345,74.3124048 L328.9582,74.3124048 C330.949496,74.3088258 332.712734,75.5948268 333.313198,77.4886897 C333.913662,79.3825526 333.212405,81.4460385 331.581172,82.5852672 L394.501282,82.5852672 C397.019135,82.5543028 399.085422,84.5652213 399.116818,87.0767794 C399.147506,89.5883375 397.131548,91.6494592 394.613695,91.6804236 L394.501282,91.6741941 Z" id="路径" fill="#E6EAED"></path>
                <path d="M301.167184,59.4237658 L294.528566,59.4237658 C293.047059,59.4415707 291.668567,58.6696244 290.912356,57.3987118 C290.156144,56.1277991 290.137099,54.5510019 290.862394,53.2622844 C291.58769,51.9735669 292.947136,51.168716 294.428643,51.1509111 L301.167184,51.1509111 C303.457395,51.1233872 305.336346,52.9530162 305.363939,55.237502 C305.391532,57.5219877 303.557318,59.3962419 301.267106,59.4237658 L301.167184,59.4237658 Z M79.6509261,99.915901 L73.0060628,99.915901 C70.7801288,99.8296857 69.0201642,98.0046308 69.0201642,95.7825884 C69.0201642,93.560546 70.7801288,91.7354911 73.0060628,91.6492758 L79.6634164,91.6492758 C81.8893504,91.7354911 83.649315,93.560546 83.649315,95.7825884 C83.649315,98.0046308 81.8893504,99.8296857 79.6634164,99.915901 L79.6509261,99.915901 Z" id="形状" fill="#E6EAED"></path>
                <polygon id="路径" fill="#999999" points="178.374608 116.480299 189.990628 116.480299 189.990628 199.171469 178.374608 199.171469"></polygon>
                <path d="M189.990628,199.794425 L178.374608,199.794425 C178.208976,199.794425 178.050127,199.728792 177.933008,199.611965 C177.815888,199.495138 177.750091,199.336687 177.750091,199.171469 L177.750091,116.480299 C177.750091,116.13625 178.029697,115.857343 178.374608,115.857343 L189.990628,115.857343 C190.33554,115.857343 190.615145,116.13625 190.615145,116.480299 L190.615145,199.171469 C190.615145,199.336687 190.549348,199.495138 190.432229,199.611965 C190.315109,199.728792 190.156261,199.794425 189.990628,199.794425 L189.990628,199.794425 Z M178.999125,198.548513 L189.366111,198.548513 L189.366111,117.103255 L178.999125,117.103255 L178.999125,198.548513 Z" id="形状" fill="#333333"></path>
                <path d="M242.312681,34.841925 L208.239021,1.27705957 L160.319815,1.53247148 L126.595885,35.4835695 L126.851937,83.2456004 L160.919352,116.835384 L208.838558,116.579972 L242.562488,82.628874 L242.312681,34.841925 Z M206.327999,110.431397 L163.467382,110.661891 L133.022168,80.6167264 L132.791096,37.894409 L162.905317,7.50661895 L205.765933,7.2761252 L236.236128,37.3212895 L236.4672,80.0436068 L206.327999,110.431397 Z" id="形状" fill="#F39800"></path>
                <path d="M160.432228,118.062607 L125.627884,83.743965 L125.365587,34.9478273 L125.727806,34.5802834 L159.801466,0.261641406 L208.751126,0.0311478516 L243.561715,34.2937236 L243.824013,83.0898613 L243.461793,83.4574055 L209.381888,117.769818 L160.432228,118.062607 Z M128.119707,82.6973992 L161.450191,115.564554 L208.332699,115.315371 L241.300963,82.0993615 L241.051156,35.377667 L207.733163,2.52297148 L160.850655,2.77215391 L127.876146,35.9881639 L128.119707,82.6973992 Z M162.955278,111.907803 L162.586813,111.546488 L131.773133,81.1400094 L131.510836,37.4085033 L131.873056,37.0409594 L162.374477,6.26070703 L206.271792,6.02398379 L237.497653,36.7980064 L237.73497,80.5544309 L237.37275,80.9219748 L206.865084,111.65862 L162.955278,111.907803 Z M134.227486,80.0934434 L163.960751,109.409749 L205.803404,109.185485 L235.218165,79.5514717 L234.993339,37.8632611 L205.260074,8.54072578 L163.417421,8.76498984 L134.01515,38.4052328 L134.227486,80.0934434 Z" id="形状" fill="#333333"></path>
                <polygon id="路径" fill="#F39800" points="236.211148 37.3898146 205.740953 7.34465039 162.880336 7.57514414 132.73489 37.9442455 132.965961 80.6665629 163.436156 110.711727 206.296773 110.481233 236.442219 80.112132"></polygon>
                <path d="M162.924052,111.963869 L131.698191,81.1960754 L131.460875,37.4458807 L162.374477,6.33546172 L206.271792,6.09873848 L237.497653,36.8727613 L237.73497,80.6229559 L237.316543,81.0154182 L206.821367,111.727145 L162.924052,111.963869 Z M134.19626,80.1495094 L163.929525,109.465815 L205.772178,109.241551 L235.186939,79.6075377 L234.962113,37.9193271 L205.228848,8.5967918 L163.386195,8.82105586 L133.971434,38.4550693 L134.19626,80.1495094 Z" id="形状" fill="#333333"></path>
                <path d="M185.013226,34.6114371 C183.182564,34.6079922 181.70099,33.1254774 181.703285,31.29939 C181.705585,29.4733027 183.190884,27.9945018 185.021549,27.9956453 C186.852214,27.9967902 188.335658,29.4774466 188.335658,31.3035354 C188.335658,32.1819243 187.985419,33.0242461 187.362162,33.6447763 C186.738905,34.2653065 185.893815,34.6130855 185.013226,34.6114371 Z M185.013226,83.4013393 C186.844705,83.4013393 188.329412,84.8823347 188.329412,86.7092351 C188.329412,88.5361355 186.844705,90.0171311 185.013226,90.0171311 C183.181747,90.0171311 181.69704,88.5361358 181.69704,86.7092354 C181.69704,85.8319268 182.046423,84.9905505 182.668328,84.3701996 C183.290234,83.7498487 184.133719,83.4013393 185.013226,83.4013393 Z M173.734445,62.5136271 L170.418259,62.5136271 L170.418259,45.9554586 L166.614949,45.9554586 L155.136322,62.9870736 L155.136322,65.1051238 L167.233221,65.1051238 L167.233221,71.8205887 L170.418259,71.8205887 L170.418259,65.1051238 L173.734445,65.1051238 L173.734445,62.5136271 Z M158.521206,62.5136271 L166.246484,51.0076313 C166.619153,50.3677503 166.948791,49.7038785 167.233221,49.0204018 L167.301918,49.0204018 C167.251956,50.0233607 167.233221,50.8892695 167.233221,51.6741941 L167.233221,62.5136271 L158.521206,62.5136271 Z M178.649396,68.9612209 C179.948275,71.0754791 182.285107,72.3313591 184.769664,72.2504283 C187.402767,72.3358075 189.882221,71.0161047 191.277134,68.7867934 C192.825937,66.4735504 193.600338,63.1365831 193.600338,58.7758916 C193.600338,49.9299175 190.852462,45.5069305 185.356711,45.5069305 C182.68053,45.3979278 180.154801,46.7422513 178.755564,49.0204018 C177.240068,51.3627161 176.482321,54.8159684 176.482321,59.3801588 C176.482321,63.5664226 177.204679,66.755957 178.649396,68.9487619 L178.649396,68.9612209 Z M185.175601,48.2417068 C188.547993,48.2417068 190.23419,51.8548512 190.23419,59.08114 C190.23419,66.0582464 188.514686,69.5467996 185.075678,69.5467996 C181.63667,69.5467996 179.89843,66.1018533 179.860959,59.2119607 C179.860959,51.877693 181.642915,48.2105592 185.206826,48.2105592 L185.175601,48.2417068 Z M213.97209,62.5198566 L210.649658,62.5198566 L210.649658,45.9554586 L206.852593,45.9554586 L195.373967,62.9870736 L195.373967,65.1051238 L207.470865,65.1051238 L207.470865,71.8205887 L210.649658,71.8205887 L210.649658,65.1051238 L213.97209,65.1051238 L213.97209,62.5198566 Z M198.75885,62.5198566 L206.484128,51.0138607 C206.856797,50.3739799 207.186436,49.7101081 207.470865,49.0266314 L207.539562,49.0266314 C207.489601,50.0295904 207.470865,50.8954992 207.470865,51.6804236 L207.470865,62.5198566 L198.75885,62.5198566 Z" id="形状" fill="#FFFEFA"></path>
                <polygon id="路径" fill="#333333" points="54.7576698 198.342937 108.665996 198.342937 108.665996 200 54.7576698 200"></polygon>
                <polygon id="路径" fill="#333333" points="112.007163 198.342937 120.300752 198.342937 120.300752 200 112.007163 200"></polygon>
                <polygon id="路径" fill="#333333" points="126.108762 198.342937 145.187763 198.342937 145.187763 200 126.108762 200"></polygon>
                <polygon id="路径" fill="#333333" points="218.200071 198.342937 254.703102 198.342937 254.703102 200 218.200071 200"></polygon>
                <polygon id="路径" fill="#333333" points="261.341721 198.342937 272.957741 198.342937 272.957741 200 261.341721 200"></polygon>
                <polygon id="路径" fill="#333333" points="278.765751 198.342937 326.054195 198.342937 326.054195 200 278.765751 200"></polygon>
                <polygon id="路径" fill="#333333" points="153.487597 198.342937 212.392061 198.342937 212.392061 200 153.487597 200"></polygon>
            </g>
        </g>
    </g>
</svg>