<?xml version="1.0" encoding="UTF-8"?>
<svg width="16px" height="16px" viewBox="0 0 16 16" version="1.1" xmlns="http://www.w3.org/2000/svg" xmlns:xlink="http://www.w3.org/1999/xlink">
    <!-- Generator: Sketch 56.2 (81672) - https://sketch.com -->
    <title>关闭</title>
    <desc>Created with Sketch.</desc>
    <g id="style" stroke="none" stroke-width="1" fill="none" fill-rule="evenodd">
        <g id="Artboard" transform="translate(-544.000000, -358.000000)" fill="#999999" fill-rule="nonzero">
            <g id="关闭" transform="translate(544.000000, 358.000000)">
                <path d="M9.13062484,7.97307052 L15.763771,1.36903593 C16.0774215,1.05669911 16.0790068,0.550579693 15.7669173,0.236680689 C15.4541205,-0.0779261779 14.9492798,-0.0788048992 14.6356293,0.233531947 L8.00077592,6.8382744 L1.42370147,0.235948425 C1.11236802,-0.0763639959 0.60594204,-0.0779505795 0.292291601,0.234361841 C-0.0206271769,0.546674262 -0.0213832432,1.05352594 0.290706274,1.36742495 L6.8661954,7.96816434 L0.236244256,14.5681715 C-0.0774305881,14.8805083 -0.0789915331,15.3865789 0.233049219,15.7005267 C0.389069596,15.857525 0.594674048,15.9366832 0.800278501,15.9366832 C1.00432203,15.9366832 1.20843871,15.8591116 1.36448347,15.7036754 L7.99601991,9.10208174 L14.6331904,15.7645269 C14.7892107,15.9215497 14.9941079,16 15.199688,16 C15.4045363,16 15.6085799,15.9215497 15.7646002,15.7661135 C16.0773971,15.4538011 16.0782507,14.9478281 15.7661856,14.6339291 L9.13062484,7.97307052 L9.13062484,7.97307052 Z"></path>
            </g>
        </g>
    </g>
</svg>