<?xml version="1.0" encoding="UTF-8"?>
<svg width="24px" height="24px" viewBox="0 0 24 24" version="1.1" xmlns="http://www.w3.org/2000/svg" xmlns:xlink="http://www.w3.org/1999/xlink">
    <!-- Generator: Sketch 56.2 (81672) - https://sketch.com -->
    <title>dashboard1</title>
    <desc>Created with Sketch.</desc>
    <g id="style" stroke="none" stroke-width="1" fill="none" fill-rule="evenodd">
        <g id="Artboard" transform="translate(-332.000000, -256.000000)" fill-rule="nonzero">
            <g id="dashboard1" transform="translate(332.000000, 256.000000)">
                <rect id="Rectangle" x="0" y="0" width="24" height="24"></rect>
                <path d="M5.99611033,0.5 C2.95953302,0.5 0.5,2.96127367 0.5,6 L0.5,10 C0.5,10.8284271 1.17157288,11.5 2,11.5 L5.99611033,11.5 C9.03268763,11.5 11.5,9.03872633 11.5,6 C11.5,2.96127367 9.02953438,0.5 5.99611033,0.5 Z M2.33333333,8.66666667 L2.33333333,6 C2.33333333,3.97487179 3.97487179,2.33333333 6,2.33333333 C8.02512821,2.33333333 9.66666667,3.97487179 9.66666667,6 C9.66666667,8.02512821 8.02794872,9.66666667 6.00282051,9.66666667 L3.33333333,9.66666667 C2.78104858,9.66666667 2.33333333,9.21895142 2.33333333,8.66666667 Z" id="Shape-Copy-3" fill="#F39800" transform="translate(6.000000, 6.000000) scale(-1, 1) translate(-6.000000, -6.000000) "></path>
                <path d="M5.99611033,12.5 C2.95953302,12.5 0.5,14.9612737 0.5,18 L0.5,22 C0.5,22.8284271 1.17157288,23.5 2,23.5 L5.99611033,23.5 C9.03268763,23.5 11.5,21.0387263 11.5,18 C11.5,14.9612737 9.02953438,12.5 5.99611033,12.5 Z M2.33333333,20.6666667 L2.33333333,18 C2.33333333,15.9748718 3.97487179,14.3333333 6,14.3333333 C8.02512821,14.3333333 9.66666667,15.9748718 9.66666667,18 C9.66666667,20.0251282 8.02794872,21.6666667 6.00282051,21.6666667 L3.33333333,21.6666667 C2.78104858,21.6666667 2.33333333,21.2189514 2.33333333,20.6666667 Z" id="Shape-Copy-5" fill="#F39800" transform="translate(6.000000, 18.000000) scale(-1, -1) translate(-6.000000, -18.000000) "></path>
                <path d="M17.9961103,12.5 C14.959533,12.5 12.5,14.9612737 12.5,18 L12.5,22 C12.5,22.8284271 13.1715729,23.5 14,23.5 L17.9961103,23.5 C21.0326876,23.5 23.5,21.0387263 23.5,18 C23.5,14.9612737 21.0295344,12.5 17.9961103,12.5 Z M14.3333333,20.6666667 L14.3333333,18 C14.3333333,15.9748718 15.9748718,14.3333333 18,14.3333333 C20.0251282,14.3333333 21.6666667,15.9748718 21.6666667,18 C21.6666667,20.0251282 20.0279487,21.6666667 18.0028205,21.6666667 L15.3333333,21.6666667 C14.7810486,21.6666667 14.3333333,21.2189514 14.3333333,20.6666667 Z" id="Shape-Copy-5" fill="#F39800" transform="translate(18.000000, 18.000000) scale(1, -1) translate(-18.000000, -18.000000) "></path>
                <path d="M17.9961103,0.5 C14.959533,0.5 12.5,2.96127367 12.5,6 L12.5,10 C12.5,10.8284271 13.1715729,11.5 14,11.5 L17.9961103,11.5 C21.0326876,11.5 23.5,9.03872633 23.5,6 C23.5,2.96127367 21.0295344,0.5 17.9961103,0.5 Z M14.3333333,8.66666667 L14.3333333,6 C14.3333333,3.97487179 15.9748718,2.33333333 18,2.33333333 C20.0251282,2.33333333 21.6666667,3.97487179 21.6666667,6 C21.6666667,8.02512821 20.0279487,9.66666667 18.0028205,9.66666667 L15.3333333,9.66666667 C14.7810486,9.66666667 14.3333333,9.21895142 14.3333333,8.66666667 Z" id="Shape-Copy-4" fill="#F39800"></path>
            </g>
        </g>
    </g>
</svg>