<?xml version="1.0" encoding="UTF-8"?>
<svg width="24px" height="24px" viewBox="0 0 24 24" version="1.1" xmlns="http://www.w3.org/2000/svg" xmlns:xlink="http://www.w3.org/1999/xlink">
    <!-- Generator: Sketch 56.2 (81672) - https://sketch.com -->
    <title>dashboard2</title>
    <desc>Created with Sketch.</desc>
    <g id="style" stroke="none" stroke-width="1" fill="none" fill-rule="evenodd">
        <g id="Artboard" transform="translate(-364.000000, -256.000000)" fill-rule="nonzero">
            <g id="dashboard2" transform="translate(364.000000, 256.000000)">
                <path d="M2,2 L8,2 C9.1045695,2 10,2.8954305 10,4 L10,10 C10,11.1045695 9.1045695,12 8,12 L2,12 C0.8954305,12 1.3527075e-16,11.1045695 0,10 L0,4 C-1.3527075e-16,2.8954305 0.8954305,2 2,2 Z M3,4 C2.44771525,4 2,4.44771525 2,5 L2,9 C2,9.55228475 2.44771525,10 3,10 L7,10 C7.55228475,10 8,9.55228475 8,9 L8,5 C8,4.44771525 7.55228475,4 7,4 L3,4 Z" id="Combined-Shape" fill="#F39800"></path>
                <path d="M13.9210678,2.07106781 L19.9210678,2.07106781 C21.0256373,2.07106781 21.9210678,2.96649831 21.9210678,4.07106781 L21.9210678,10.0710678 C21.9210678,11.1756373 21.0256373,12.0710678 19.9210678,12.0710678 L13.9210678,12.0710678 C12.8164983,12.0710678 11.9210678,11.1756373 11.9210678,10.0710678 L11.9210678,4.07106781 C11.9210678,2.96649831 12.8164983,2.07106781 13.9210678,2.07106781 Z M14.9210678,4.07106781 C14.3687831,4.07106781 13.9210678,4.51878306 13.9210678,5.07106781 L13.9210678,9.07106781 C13.9210678,9.62335256 14.3687831,10.0710678 14.9210678,10.0710678 L18.9210678,10.0710678 C19.4733526,10.0710678 19.9210678,9.62335256 19.9210678,9.07106781 L19.9210678,5.07106781 C19.9210678,4.51878306 19.4733526,4.07106781 18.9210678,4.07106781 L14.9210678,4.07106781 Z" id="Combined-Shape-Copy" fill="#F39800" transform="translate(16.921068, 7.071068) rotate(45.000000) translate(-16.921068, -7.071068) "></path>
                <rect id="Rectangle" x="0" y="0" width="24" height="24"></rect>
                <path d="M2,14 L8,14 C9.1045695,14 10,14.8954305 10,16 L10,22 C10,23.1045695 9.1045695,24 8,24 L2,24 C0.8954305,24 1.3527075e-16,23.1045695 0,22 L0,16 C-1.3527075e-16,14.8954305 0.8954305,14 2,14 Z M3,16 C2.44771525,16 2,16.4477153 2,17 L2,21 C2,21.5522847 2.44771525,22 3,22 L7,22 C7.55228475,22 8,21.5522847 8,21 L8,17 C8,16.4477153 7.55228475,16 7,16 L3,16 Z" id="Combined-Shape-Copy-2" fill="#F39800"></path>
                <path d="M14,14 L20,14 C21.1045695,14 22,14.8954305 22,16 L22,22 C22,23.1045695 21.1045695,24 20,24 L14,24 C12.8954305,24 12,23.1045695 12,22 L12,16 C12,14.8954305 12.8954305,14 14,14 Z M15,16 C14.4477153,16 14,16.4477153 14,17 L14,21 C14,21.5522847 14.4477153,22 15,22 L19,22 C19.5522847,22 20,21.5522847 20,21 L20,17 C20,16.4477153 19.5522847,16 19,16 L15,16 Z" id="Combined-Shape-Copy-3" fill="#F39800"></path>
            </g>
        </g>
    </g>
</svg>