<?xml version="1.0" encoding="UTF-8"?>
<svg width="16px" height="16px" viewBox="0 0 16 16" version="1.1" xmlns="http://www.w3.org/2000/svg" xmlns:xlink="http://www.w3.org/1999/xlink">
    <!-- Generator: Sketch 56.2 (81672) - https://sketch.com -->
    <title>未选中</title>
    <desc>Created with Sketch.</desc>
    <g id="style" stroke="none" stroke-width="1" fill="none" fill-rule="evenodd">
        <g id="Artboard" transform="translate(-640.000000, -358.000000)" fill="#333333" fill-rule="nonzero">
            <g id="未选中" transform="translate(640.000000, 358.000000)">
                <path d="M14.4006058,0 L1.59939417,0 C0.716900164,0 0,0.716809692 0,1.59919233 L0,14.4008077 C0,15.2831903 0.716900164,16 1.59939417,16 L14.4006058,16 C15.2830998,16 16,15.2831903 16,14.4008077 L16,1.59919233 C16,0.718828874 15.2810804,0 14.4006058,0 Z M14.4980611,14.1452431 C14.4980611,14.3371608 14.3351976,14.5 14.1432513,14.5 L1.85480984,14.5 C1.66286353,14.5 1.5,14.3371608 1.5,14.1452431 L1.5,1.85475693 C1.5,1.66283925 1.66286353,1.5 1.85480984,1.5 L14.1451902,1.5 C14.3371365,1.5 14.5,1.66283925 14.5,1.85475693 L14.5,14.1452431 L14.4980611,14.1452431 Z" id="Shape"></path>
            </g>
        </g>
    </g>
</svg>