<?xml version="1.0" encoding="UTF-8"?>
<svg width="288px" height="54px" viewBox="0 0 288 54" version="1.1" xmlns="http://www.w3.org/2000/svg" xmlns:xlink="http://www.w3.org/1999/xlink">
    <!-- Generator: Sketch 56.2 (81672) - https://sketch.com -->
    <title>机柜部件7</title>
    <desc>Created with Sketch.</desc>
    <g id="style" stroke="none" stroke-width="1" fill="none" fill-rule="evenodd">
        <g id="Artboard" transform="translate(-427.000000, -1224.000000)">
            <g id="机柜部件7" transform="translate(427.000000, 1224.000000)">
                <rect id="矩形" fill="#D8D8D8" x="162" y="7" width="126" height="40"></rect>
                <g id="编组-5">
                    <path d="M0.5,7.45972861 L0.5,47.1100622 C10.8260184,42.7041832 21.157793,40.5 31.4920635,40.5 C42.0666477,40.5 51.9634779,42.8080162 61.1332875,47.4042451 C71.6053014,51.4685091 82.2265707,53.5 93,53.5 C103.680847,53.5 115.180818,51.503254 127.5,47.50736 L127.5,7.83340395 C116.093632,11.7711966 104.746438,13.7407407 93.4603175,13.7407407 C81.9493746,13.7407407 71.0505621,11.6918917 60.7328232,7.57884492 C51.0748896,2.85844761 41.3295565,0.5 31.4920635,0.5 C21.7383781,0.5 11.4081205,2.81847338 0.500000002,7.45972888 Z" id="矩形备份-15" stroke="#999999"></path>
                    <path d="M0.780063951,17.3692411 C11.474241,12.4564137 21.6711094,10 31.3706691,10 C41.1559044,10 50.9411396,12.5 60.7263749,17.5 C71.017743,21.8333333 81.815244,24 93.1188778,24 C104.339273,24 115.559669,21.8651259 126.780064,17.5953778" id="路径" stroke="#999999" stroke-linecap="square"></path>
                    <path d="M1,27.3692411 C11.6941771,22.4564137 21.8910455,20 31.5906052,20 C41.3758404,20 51.1610757,22.5 60.9463109,27.5 C71.237679,31.8333333 82.03518,34 93.3388138,34 C104.559209,34 115.779605,31.8651259 127,27.5953778" id="路径备份" stroke="#999999" stroke-linecap="square"></path>
                    <path d="M1,37.3692411 C11.6941771,32.4564137 21.8910455,30 31.5906052,30 C41.3758404,30 51.1610757,32.5 60.9463109,37.5 C71.237679,41.8333333 82.03518,44 93.3388138,44 C104.559209,44 115.779605,41.8651259 127,37.5953778" id="路径备份-2" stroke="#999999" stroke-linecap="square"></path>
                    <path d="M16,2.5 L16,41.5" id="直线-7" stroke="#979797" stroke-linecap="square"></path>
                    <path d="M32,1 L32,40" id="直线-7备份" stroke="#979797" stroke-linecap="square"></path>
                    <path d="M48,3 L48,42" id="直线-7备份-2" stroke="#979797" stroke-linecap="square"></path>
                    <path d="M64,9 L64,48" id="直线-7备份-3" stroke="#979797" stroke-linecap="square"></path>
                    <path d="M80,13 L80,52" id="直线-7备份-4" stroke="#979797" stroke-linecap="square"></path>
                    <path d="M96,14 L96,53" id="直线-7备份-5" stroke="#979797" stroke-linecap="square"></path>
                    <path d="M112,12 L112,51" id="直线-7备份-6" stroke="#979797" stroke-linecap="square"></path>
                </g>
            </g>
        </g>
    </g>
</svg>