<?xml version="1.0" encoding="UTF-8"?>
<svg width="307px" height="40px" viewBox="0 0 307 40" version="1.1" xmlns="http://www.w3.org/2000/svg" xmlns:xlink="http://www.w3.org/1999/xlink">
    <!-- Generator: Sketch 56.2 (81672) - https://sketch.com -->
    <title>机柜部件2</title>
    <desc>Created with Sketch.</desc>
    <g id="style" stroke="none" stroke-width="1" fill="none" fill-rule="evenodd">
        <g id="Artboard" transform="translate(-423.000000, -865.000000)" fill="#CCCCCC">
            <g id="机柜部件2" transform="translate(423.000000, 865.000000)">
                <rect id="矩形备份-19" x="144" y="12" width="163" height="4"></rect>
                <rect id="矩形备份-31" x="144" y="24" width="163" height="4"></rect>
                <rect id="矩形" x="12" y="10" width="12" height="20"></rect>
                <rect id="矩形备份-26" x="36" y="10" width="12" height="20"></rect>
                <rect id="矩形备份-27" x="60" y="10" width="12" height="20"></rect>
                <rect id="矩形备份-28" x="84" y="10" width="12" height="20"></rect>
                <rect id="矩形备份-29" x="108" y="10" width="12" height="20"></rect>
                <rect id="矩形备份-30" x="132" y="10" width="12" height="20"></rect>
                <rect id="矩形" x="0" y="0" width="12" height="40"></rect>
                <rect id="矩形备份-21" x="24" y="0" width="12" height="40"></rect>
                <rect id="矩形备份-22" x="48" y="0" width="12" height="40"></rect>
                <rect id="矩形备份-23" x="72" y="0" width="12" height="40"></rect>
                <rect id="矩形备份-24" x="96" y="0" width="12" height="40"></rect>
                <rect id="矩形备份-25" x="120" y="0" width="12" height="40"></rect>
            </g>
        </g>
    </g>
</svg>