<?xml version="1.0" encoding="UTF-8"?>
<svg width="24px" height="24px" viewBox="0 0 24 24" version="1.1" xmlns="http://www.w3.org/2000/svg" xmlns:xlink="http://www.w3.org/1999/xlink">
    <!-- Generator: Sketch 56.2 (81672) - https://sketch.com -->
    <title>查询统计3</title>
    <desc>Created with Sketch.</desc>
    <g id="style" stroke="none" stroke-width="1" fill="none" fill-rule="evenodd">
        <g id="Artboard" transform="translate(-620.000000, -256.000000)" fill-rule="nonzero">
            <g id="查询统计3" transform="translate(620.000000, 256.000000)">
                <rect id="Rectangle" x="0" y="0" width="24" height="24"></rect>
                <path d="M11,21 C5.4771525,21 1,16.5228475 1,11 C1,5.4771525 5.4771525,1 11,1 C16.5228475,1 21,5.4771525 21,11 C21,16.5228475 16.5228475,21 11,21 Z M11,19 C15.418278,19 19,15.418278 19,11 C19,6.581722 15.418278,3 11,3 C6.581722,3 3,6.581722 3,11 C3,15.418278 6.581722,19 11,19 Z" id="Combined-Shape-Copy-5" fill="#F39800"></path>
                <path d="M20.1819805,16.6819805 L20.1819805,23.6819805" id="Line-7-Copy" stroke="#F39800" stroke-width="2" stroke-linecap="round" transform="translate(20.181981, 20.181981) rotate(-45.000000) translate(-20.181981, -20.181981) "></path>
                <rect id="Rectangle" fill="#F39800" x="5.5" y="10" width="3" height="6" rx="1"></rect>
                <rect id="Rectangle-Copy" fill="#F39800" x="9.5" y="5" width="3" height="11" rx="1"></rect>
                <rect id="Rectangle-Copy-2" fill="#F39800" x="13.5" y="8" width="3" height="8" rx="1"></rect>
            </g>
        </g>
    </g>
</svg>