<?xml version="1.0" encoding="UTF-8"?>
<svg width="24px" height="24px" viewBox="0 0 24 24" version="1.1" xmlns="http://www.w3.org/2000/svg" xmlns:xlink="http://www.w3.org/1999/xlink">
    <!-- Generator: Sketch 56.2 (81672) - https://sketch.com -->
    <title>站场图2</title>
    <desc>Created with Sketch.</desc>
    <g id="style" stroke="none" stroke-width="1" fill="none" fill-rule="evenodd">
        <g id="Artboard" transform="translate(-492.000000, -256.000000)" fill-rule="nonzero">
            <g id="站场图2" transform="translate(492.000000, 256.000000)">
                <rect id="Rectangle" x="0" y="0" width="24" height="24"></rect>
                <g id="Group-4" transform="translate(5.500000, 0.500000)">
                    <rect id="Rectangle" fill="#F39800" x="0.5" y="0" width="12" height="7" rx="2"></rect>
                    <rect id="Rectangle-Copy-6" fill="#FFFFFF" x="2.5" y="2" width="8" height="3"></rect>
                    <path d="M6.5,7 L6.5,14" id="Line" stroke="#F39800" stroke-width="2" stroke-linecap="round"></path>
                </g>
                <path d="M4,14.5 L4,13.5 C4,11.8431458 5.34314575,10.5 7,10.5 L17,10.5 C18.6568542,10.5 20,11.8431458 20,13.5 L20,14.5" id="Path-4" stroke="#F39800" stroke-width="2" stroke-linecap="round" stroke-linejoin="round"></path>
                <path d="M2.5,13.5 L5.5,13.5 C6.6045695,13.5 7.5,14.3954305 7.5,15.5 L7.5,21.5 C7.5,22.6045695 6.6045695,23.5 5.5,23.5 L2.5,23.5 C1.3954305,23.5 0.5,22.6045695 0.5,21.5 L0.5,15.5 C0.5,14.3954305 1.3954305,13.5 2.5,13.5 Z M2.5,15.5 L2.5,21.5 L5.5,21.5 L5.5,15.5 L2.5,15.5 Z" id="Combined-Shape" fill="#F39800"></path>
                <path d="M10.5,13.5 L13.5,13.5 C14.6045695,13.5 15.5,14.3954305 15.5,15.5 L15.5,21.5 C15.5,22.6045695 14.6045695,23.5 13.5,23.5 L10.5,23.5 C9.3954305,23.5 8.5,22.6045695 8.5,21.5 L8.5,15.5 C8.5,14.3954305 9.3954305,13.5 10.5,13.5 Z M10.5,15.5 L10.5,21.5 L13.5,21.5 L13.5,15.5 L10.5,15.5 Z" id="Combined-Shape-Copy-3" fill="#F39800"></path>
                <path d="M18.5,13.5 L21.5,13.5 C22.6045695,13.5 23.5,14.3954305 23.5,15.5 L23.5,21.5 C23.5,22.6045695 22.6045695,23.5 21.5,23.5 L18.5,23.5 C17.3954305,23.5 16.5,22.6045695 16.5,21.5 L16.5,15.5 C16.5,14.3954305 17.3954305,13.5 18.5,13.5 Z M18.5,15.5 L18.5,21.5 L21.5,21.5 L21.5,15.5 L18.5,15.5 Z" id="Combined-Shape-Copy-4" fill="#F39800"></path>
            </g>
        </g>
    </g>
</svg>