<?xml version="1.0" encoding="UTF-8"?>
<svg width="24px" height="24px" viewBox="0 0 24 24" version="1.1" xmlns="http://www.w3.org/2000/svg" xmlns:xlink="http://www.w3.org/1999/xlink">
    <!-- Generator: Sketch 56.2 (81672) - https://sketch.com -->
    <title>管理1</title>
    <desc>Created with Sketch.</desc>
    <g id="style" stroke="none" stroke-width="1" fill="none" fill-rule="evenodd">
        <g id="Artboard" transform="translate(-460.000000, -288.000000)">
            <g id="管理1" transform="translate(460.000000, 288.000000)">
                <rect id="Rectangle" fill-rule="nonzero" x="0" y="0" width="24" height="24"></rect>
                <g id="管理-(5)" transform="translate(3.000000, 8.000000)" fill="#F39800">
                    <path d="M8.35630689,2 L0.643693108,2 C0.284785436,2 0,1.55757576 0,1 C0,0.442424243 0.284785436,0 0.643693108,0 L8.35630689,0 C8.71521456,0 9,0.442424243 9,1 C9,1.56363636 8.71911573,2 8.35630689,2 L8.35630689,2 Z" id="Path"></path>
                    <path d="M6.29915049,5 L0.700849514,5 C0.310072816,5 0,4.56363636 0,4 C0,3.44242424 0.310072816,3 0.700849514,3 L6.29915049,3 C6.68992718,3 7,3.44242424 7,4 C7,4.55757576 6.69417476,5 6.29915049,5 Z" id="Path"></path>
                    <path d="M6.29915049,8 L0.700849514,8 C0.310072816,8 0,7.55757576 0,7 C0,6.44242424 0.310072816,6 0.700849514,6 L6.29915049,6 C6.68992718,6 7,6.44242424 7,7 C7,7.56363636 6.69417476,8 6.29915049,8 Z" id="Path"></path>
                    <path d="M8.35630689,11 L0.643693108,11 C0.284785436,11 0,10.5575758 0,10 C0,9.44242424 0.284785436,9 0.643693108,9 L8.35630689,9 C8.71521456,9 9,9.44242424 9,10 C9,10.5636364 8.71911573,11 8.35630689,11 L8.35630689,11 Z" id="Path"></path>
                    <path d="M19.598466,6.65997006 L18.9872243,6.24128264 C18.4563173,5.88093691 18.4563173,5.12249495 18.9872243,4.75871736 L19.598466,4.34002994 C20.405305,3.78749982 19.8848764,2.54173315 18.9068897,2.70989449 L18.1803854,2.8334416 C17.5481868,2.94669311 16.9963229,2.40445859 17.1115857,1.78329119 L17.2373268,1.06946346 C17.4084745,0.118837101 16.1440774,-0.399374377 15.5782423,0.389954365 L15.1521196,0.990530581 C14.7853746,1.51217392 14.0134637,1.51217392 13.6432259,0.990530581 L13.2171031,0.389954365 C12.6547608,-0.402806241 11.386871,0.108541509 11.5580186,1.06946346 L11.6837598,1.78329119 C11.7990225,2.40445859 11.2471586,2.94669311 10.6149601,2.8334416 L9.88845571,2.70989449 C8.92094749,2.54173315 8.39353326,3.78406795 9.19687944,4.34002994 L9.80812109,4.75871736 C10.3390281,5.11906309 10.3390281,5.87750505 9.80812109,6.24128264 L9.19687944,6.65997006 C8.39004045,7.21250018 8.91046906,8.45826685 9.88845571,8.29010551 L10.6149601,8.1665584 C11.2471586,8.05330689 11.7990225,8.59554141 11.6837598,9.21670881 L11.5580186,9.93053654 C11.386871,10.8811629 12.651268,11.3993744 13.2171031,10.6100456 L13.6432259,10.0094694 C14.0099709,9.48782608 14.7818818,9.48782608 15.1521196,10.0094694 L15.5782423,10.6100456 C16.1405846,11.4028062 17.4084745,10.8914585 17.2373268,9.93053654 L17.1115857,9.21670881 C16.9963229,8.59554141 17.5481868,8.05330689 18.1803854,8.1665584 L18.9068897,8.29010551 C19.8848764,8.46856244 20.4157834,7.21250018 19.598466,6.65997006 L19.598466,6.65997006 Z M14.4081511,8.04987502 C12.9795921,8.04987502 11.8199793,6.90706428 11.8199793,5.50686373 C11.8199793,4.10323131 12.9830849,2.96385243 14.4081511,2.96385243 C15.8367102,2.96385243 16.9963229,4.10666318 16.9963229,5.50686373 C16.9963229,6.90706428 15.8332174,8.04987502 14.4081511,8.04987502 Z" id="Shape" fill-rule="nonzero"></path>
                </g>
                <g id="Group" transform="translate(1.000000, 1.000000)" fill-rule="nonzero" stroke="#F39800" stroke-linecap="round" stroke-linejoin="round" stroke-width="2">
                    <path d="M15,5.375 L15,3.8 C15,3.3581722 14.6418278,3 14.2,3 L0.8,3 C0.3581722,3 -2.76152905e-16,3.3581722 0,3.8 L0,21.2 C5.41083001e-17,21.6418278 0.3581722,22 0.8,22 L14.2,22 C14.6418278,22 15,21.6418278 15,21.2 L15,19.625" id="Path-12"></path>
                    <path d="M7,2.35714286 L7,0.8 C7,0.3581722 7.3581722,8.11624501e-17 7.8,0 L21.2,0 C21.6418278,2.98598523e-17 22,0.3581722 22,0.8 L22,5.5" id="Path-13"></path>
                </g>
            </g>
        </g>
    </g>
</svg>