<?xml version="1.0" encoding="UTF-8"?>
<svg width="24px" height="24px" viewBox="0 0 24 24" version="1.1" xmlns="http://www.w3.org/2000/svg" xmlns:xlink="http://www.w3.org/1999/xlink">
    <!-- Generator: Sketch 56.2 (81672) - https://sketch.com -->
    <title>设备监控2</title>
    <desc>Created with Sketch.</desc>
    <g id="style" stroke="none" stroke-width="1" fill="none" fill-rule="evenodd">
        <g id="Artboard" transform="translate(-364.000000, -288.000000)" fill-rule="nonzero">
            <g id="设备监控2" transform="translate(364.000000, 288.000000)">
                <rect id="Rectangle" x="0" y="0" width="24" height="24"></rect>
                <path d="M20.4256767,21.0720264 C22.0323032,19.1598801 23,16.6929489 23,14 C23,7.92486775 18.0751322,3 12,3 C5.92486775,3 1,7.92486775 1,14 C1,16.6818489 1.95973582,19.1395394 3.55448898,21.0483532" id="Path" stroke="#F39800" stroke-width="2" stroke-linecap="round" stroke-linejoin="round"></path>
                <path d="M18.9209871,15.0552228 C18.9730229,14.7110616 19,14.3586812 19,14 C19,10.1340068 15.8659932,7 12,7 C8.13400675,7 5,10.1340068 5,14 C5,14.3557552 5.02653874,14.705312 5.07774448,15.0467986" id="Path" stroke="#F39800" stroke-width="2" stroke-linecap="round" stroke-linejoin="round"></path>
                <circle id="Oval" stroke="#F39800" stroke-width="2" cx="12" cy="15.5" r="2.5"></circle>
                <path d="M3.70088736,21.0720264 L20.3,21.0720264" id="Line-23" stroke="#F39800" stroke-width="2" stroke-linecap="round" stroke-linejoin="round"></path>
                <path d="M9.17201655,11.6715729 L9.1743125,13.6715729" id="Line-24" stroke="#F39800" stroke-width="2" stroke-linecap="round" stroke-linejoin="round" transform="translate(9.171573, 12.671573) rotate(-45.000000) translate(-9.171573, -12.671573) "></path>
            </g>
        </g>
    </g>
</svg>