<?xml version="1.0" encoding="UTF-8"?>
<svg width="24px" height="24px" viewBox="0 0 24 24" version="1.1" xmlns="http://www.w3.org/2000/svg" xmlns:xlink="http://www.w3.org/1999/xlink">
    <!-- Generator: Sketch 56.2 (81672) - https://sketch.com -->
    <title>辅助信息2</title>
    <desc>Created with Sketch.</desc>
    <g id="style" stroke="none" stroke-width="1" fill="none" fill-rule="evenodd">
        <g id="Artboard" transform="translate(-556.000000, -288.000000)" fill-rule="nonzero">
            <g id="辅助信息2" transform="translate(556.000000, 288.000000)">
                <rect id="Rectangle" x="0" y="0" width="24" height="24"></rect>
                <g id="辅助资料" transform="translate(0.500000, 0.000000)" fill="#F39800">
                    <path d="M18.2540588,6 L9.74594121,6 C9.2983765,6 9,6.4007574 9,7.00189354 C9,7.60302968 9.29837647,8.00378705 9.74594121,8.00378705 L18.2540588,8.00378705 C18.7016235,8.00378705 19,7.60302964 19,7.00189354 C19,6.40075744 18.7016235,6 18.2540588,6 L18.2540588,6 Z M6.88888888,6 L5.11111112,6 C4.66666668,6 4,6.4007574 4,7.00189354 C4,7.60302968 4.44444443,8.00378705 5.11111112,8.00378705 L6.88888888,8.00378705 C7.55555553,8.00378705 8,7.60302964 8,7.00189354 C8,6.60113614 7.55555557,6 6.88888888,6 Z M18.2540588,11.0014656 L9.74594121,11.0014656 C9.2983765,11.0014656 9,11.402223 9,12.0033591 C9,12.6044953 9.29837647,13.0052527 9.74594121,13.0052527 L18.2540588,13.0052527 C18.7016235,13.0052527 19,12.6044953 19,12.0033591 C19,11.402223 18.7016235,11.0014656 18.2540588,11.0014656 L18.2540588,11.0014656 Z M6.88888888,11.0014656 L5.11111112,11.0014656 C4.66666668,11.0014656 4,11.402223 4,12.0033591 C4,12.6044953 4.44444443,13.0052527 5.11111112,13.0052527 L6.88888888,13.0052527 C7.55555553,13.0052527 8,12.6044953 8,12.0033591 C8,11.402223 7.55555557,11.0014656 6.88888888,11.0014656 Z M18.2540588,15.996213 L9.74594121,15.996213 C9.2983765,15.996213 9,16.3969704 9,16.9981065 C9,17.5992426 9.29837647,18 9.74594121,18 L18.2540588,18 C18.7016235,18 19,17.5992426 19,16.9981065 C19,16.3969703 18.7016235,15.996213 18.2540588,15.996213 L18.2540588,15.996213 Z M6.88888888,15.996213 L5.11111112,15.996213 C4.44444447,15.996213 4,16.3969704 4,16.9981065 C4,17.3988639 4.44444443,18 5.11111112,18 L6.88888888,18 C7.55555553,18 8,17.5992426 8,16.9981065 C8,16.3969703 7.55555557,15.996213 6.88888888,15.996213 Z" id="Shape"></path>
                    <path d="M18.8866499,0 L4.10852224,0 C1.81045339,0 0,1.88413099 0,4.28715364 L0,19.7128463 C0,22.1108312 1.80562553,24 4.10852224,24 L18.8914777,24 C21.1895466,24 23,22.115869 23,19.7128463 L23,4.28715364 C22.9951721,1.88916876 21.1895466,0 18.8866499,0 Z M18.6261636,22 L4.37383635,22 C3.1077903,22 2,20.833905 2,19.5012249 L2,4.4987751 C2,3.16609505 3.1077903,2 4.37383635,2 L18.6261636,2 C19.8922097,2 21,3.16609505 21,4.4987751 L21,19.5012249 C21,20.8339049 19.8922097,22 18.6261636,22 Z" id="Shape"></path>
                </g>
            </g>
        </g>
    </g>
</svg>